# AST/ASF file generated using VICON BodyLanguage
# -----------------------------------------------
:version 1.10
:name VICON
:units
  mass 1.0
  length 0.45
  angle deg
:documentation
   .ast/.asf automatically generated from VICON data using
   VICON BodyBuilder and BodyLanguage model FoxedUp or BRILLIANT.MOD
:root
   order TX TY TZ RX RY RZ
   axis XYZ
   position 0 0 0  
   orientation 0 0 0 
:bonedata
  begin
     id 1 
     name lhipjoint
     direction 0.570549 -0.739093 0.358072 
     length 2.41801 
     axis 0 0 0  XYZ
  end
  begin
     id 2 
     name lfemur
     direction 0.34202 -0.939693 0  
     length 7.44434  
     axis 0 0 20  XYZ
    dof rx ry rz
    limits (-160.0 20.0)
           (-70.0 70.0)
           (-60.0 70.0)
  end
  begin
     id 3 
     name ltibia
     direction 0.34202 -0.939693 0   
     length 7.60047   
     axis 0 0 20   XYZ
    dof rx
    limits (-10.0 170.0)
  end
  begin
     id 4 
     name lfoot
     direction 0.0909041 -0.249757 0.964032   
     length 2.03437   
     axis -90 7.62852e-016 20   XYZ
    dof rx rz
    limits (-45.0 90.0)
           (-70.0 20.0)
  end
  begin
     id 5 
     name ltoes
     direction 1.53547e-011 -4.2174e-011 1   
     length 1.02054   
     axis -90 7.62852e-016 20   XYZ
    dof rx
    limits (-90.0 20.0)
  end
  begin
     id 6 
     name rhipjoint
     direction -0.558096 -0.746754 0.361784   
     length 2.3932  
     axis 0 0 0  XYZ 
  end
  begin
     id 7 
     name rfemur
     direction -0.34202 -0.939693 0   
     length 7.3886   
     axis 0 0 -20   XYZ
    dof rx ry rz
    limits (-160.0 20.0)
           (-70.0 70.0)
           (-70.0 60.0)
  end
  begin
     id 8 
     name rtibia
     direction -0.34202 -0.939693 0   
     length 7.4839   
     axis 0 0 -20   XYZ
    dof rx
    limits (-10.0 170.0)
 end
 begin
     id 9 
     name rfoot
     direction -0.114619 -0.314914 0.942174   
     length 2.25127  
     axis -90 -7.62852e-016 -20   XYZ
    dof rx rz
    limits (-45.0 90.0)
           (-20.0 70.0)
  end
  begin
     id 10 
     name rtoes
     direction -1.53518e-011 -4.21881e-011 1   
     length 1.11821   
     axis -90 -7.62852e-016 -20   XYZ
    dof rx
    limits (-90.0 20.0)
  end
  begin
     id 11 
     name lowerback
     direction -0.00902269 0.996426 -0.0839821   
     length 2.25052   
     axis 0 0 0   XYZ
    dof rx ry rz
    limits (-20.0 45.0)
           (-30.0 30.0)
           (-30.0 30.0)
  end
  begin
     id 12 
     name upperback
     direction 0.0370973 0.999169 -0.0168941   
     length 2.24876   
     axis 0 0 0   XYZ
    dof rx ry rz
    limits (-20.0 45.0)
           (-30.0 30.0)
           (-30.0 30.0)
  end
  begin
     id 13 
     name thorax
     direction 0.0402726 0.998931 0.0227027   
     length 2.26408   
     axis 0 0 0   XYZ
    dof rx ry rz
    limits (-20.0 45.0)
           (-30.0 30.0)
           (-30.0 30.0)
  end
  begin
     id 14 
     name lowerneck
     direction -0.0733697 0.98508 0.155675   
     length 1.58204   
     axis 0 0 0   XYZ
    dof rx ry rz
    limits (-20.0 45.0)
           (-30.0 30.0)
           (-30.0 30.0)
  end
  begin
     id 15 
     name upperneck
     direction 0.0426554 0.993501 -0.105526   
     length 1.61222   
     axis 0 0 0   XYZ
    dof rx ry rz
    limits (-20.0 45.0)
           (-30.0 30.0)
           (-30.0 30.0)
  end
  begin
     id 16
     name head
     direction 0.020792 0.998384 -0.0528868  
     length 1.61527  
     axis 0 0 0   XYZ
    dof rx ry rz
    limits (-20.0 45.0)
           (-30.0 30.0)
           (-30.0 30.0)
  end
  begin
     id 17 
     name lclavicle
     direction 0.967109 0.155462 -0.201325  
     length 3.59357  
     axis 0 0 0   XYZ
    dof ry rz
    limits (-20.0 10.0)
           (0.0 20.0)
  end
  begin
     id 18 
     name lhumerus
     direction 1 -4.48968e-011 2.38195e-027   
     length 5.38154   
     axis 180 -30 -90   XYZ
    dof rx ry rz
    limits (-60.0 90.0)
           (-90.0 90.0)
           (-90.0 90.0)
  end
  begin
     id 19
     name lradius
     direction 1 -4.48961e-011 4.85371e-027   
     length 3.33312   
     axis 180 -30 -90   XYZ
    dof rx
    limits (-10.0 170.0)
  end
  begin
     id 20
     name lwrist
     direction 1 -4.48961e-011 4.76515e-027   
     length 1.66656   
     axis -3.27502e-015 90 90   XYZ
    dof ry
    limits (-180.0 0.0)
 end
  begin
     id 21 
     name lhand
     direction 1 -4.48951e-011 9.53074e-027   
     length 0.710789   
     axis -6.08098e-015 90 90   XYZ
    dof rx rz
    limits (-90.0 90.0)
           (-45.0 45.0)
  end
  begin
     id 22 
     name lfingers
     direction 1 -4.48953e-011 1.90613e-026   
     length 0.573057   
     axis -1.21619e-014 90 90   XYZ
    dof rx
    limits (0.0 90.0)
  end
  begin
     id 23
     name lthumb
     direction 0.707107 -6.34973e-011 0.707107   
     length 0.822798   
     axis -90 45 -9.86923e-015   XYZ
    dof rx rz
    limits (-45.0 45.0)
           (-45.0 45.0)
  end
  begin
     id 24 
     name rclavicle
     direction -0.9585 0.265289 -0.104398   
     length 3.42039  
     axis 0 0 0   XYZ 
    dof ry rz
    limits (-10.0 20.0)
           (-20.0 0.0)
  end
  begin
     id 25 
     name rhumerus
     direction -1 -4.48977e-011 2.21478e-027  
     length 5.16954   
     axis 180 30 90   XYZ
    dof rx ry rz
    limits (-90.0 60.0)
           (-90.0 90.0)
           (-90.0 90.0)
  end
  begin
     id 26 
     name rradius
     direction -1 -4.48967e-011 5.63677e-027   
     length 3.38287   
     axis 180 30 90   XYZ
    dof rx
    limits (-10.0 170.0)
  end
  begin
     id 27 
     name rwrist
     direction -1 -4.48967e-011 4.76501e-027   
     length 1.69144   
     axis -3.27502e-015 -90 -90   XYZ
    dof ry
    limits (-180.0 0.0)
  end
  begin
     id 28
     name rhand
     direction -1 -4.48902e-011 9.53292e-027   
     length 0.817967   
     axis -6.08098e-015 -90 -90   XYZ
    dof rx rz
    limits (-90.0 90.0)
           (-45.0 45.0)
  end
  begin
     id 29
     name rfingers
     direction -1 -4.49012e-011 1.90561e-026   
     length 0.659466   
     axis -1.21619e-014 -90 -90   XYZ
    dof rx
    limits (0.0 90.0)
  end
  begin
     id 30
     name rthumb
     direction -0.707107 -6.34944e-011 0.707107   
     length 0.946865   
     axis -90 -45 9.86923e-015   XYZ
    dof rx rz
    limits (-45.0 45.0)
           (-45.0 45.0)
  end
:hierarchy
  begin
    root lhipjoint rhipjoint lowerback
    lhipjoint lfemur
    lfemur ltibia
    ltibia lfoot
    lfoot ltoes
    rhipjoint rfemur
    rfemur rtibia
    rtibia rfoot
    rfoot rtoes
    lowerback upperback
    upperback thorax
    thorax lowerneck lclavicle rclavicle
    lowerneck upperneck
    upperneck head
    lclavicle lhumerus
    lhumerus lradius
    lradius lwrist
    lwrist lhand lthumb
    lhand lfingers
    rclavicle rhumerus
    rhumerus rradius
    rradius rwrist
    rwrist rhand rthumb
    rhand rfingers
  end

#!OML:ASF F:\twosubjects\two\wednesday\Session 1\Justin1.ASF
:FULLY-SPECIFIED
:DEGREES
571
root 5.54618 15.8462 -17.1726 -974.767 -72.2009 -457.005
lowerback 11.9223 5.78103 3.91138
upperback 0.972273 8.19006 1.36403
thorax -5.27086 3.91717 -2.04637
lowerneck -22.5802 4.3206 -4.52846
upperneck -0.31353 6.51925 1.91701
head 3.16147 3.23364 1.86981
rclavicle 3.02153e-014 6.36111e-014
rhumerus -26.7349 -9.16303 -63.0048
rradius 35.9379
rwrist -6.93827
rhand -11.1052 29.5011
rfingers 7.12502
rthumb 14.9191 0.0583435
lclavicle 3.02153e-014 6.36111e-014
lhumerus -23.6569 -30.23 33.6142
lradius 80.1954
lwrist 58.9698
lhand 0.230456 45.6045
lfingers 7.12502
lthumb 25.8111 73.8733
rfemur -19.243 -12.4025 17.6736
rtibia 77.4405
rfoot -7.10512 -12.7004
rtoes -3.70902
lfemur -34.6196 3.70066 -17.4457
ltibia 59.3022
lfoot -24.8521 -11.6513
ltoes 32.362
572
root 5.39212 15.9396 -17.1658 -979.756 -72.3327 -452.42
lowerback 12.3145 5.66767 3.8796
upperback 0.82109 8.08452 1.71429
thorax -5.71094 3.85245 -1.70803
lowerneck -22.0701 4.54902 -4.6151
upperneck -0.419209 6.86378 1.38463
head 3.06004 3.37803 1.73057
rclavicle -5.28767e-014 0
rhumerus -27.0674 -8.98684 -61.7119
rradius 35.4453
rwrist -7.65523
rhand -11.4811 28.8998
rfingers 7.12502
rthumb 14.557 -0.569401
lclavicle -5.28767e-014 0
lhumerus -24.3948 -30.3254 35.1104
lradius 80.4328
lwrist 59.2676
lhand -0.941317 46.0646
lfingers 7.12502
lthumb 24.6885 74.4918
rfemur -20.7978 -11.5569 17.2612
rtibia 78.2648
rfoot -7.39405 -12.4679
rtoes -6.31893
lfemur -32.4899 3.36886 -17.4209
ltibia 57.3122
lfoot -24.2508 -12.2618
ltoes 32.9267
573
root 5.23855 16.0428 -17.1385 -985.484 -73.1732 -446.736
lowerback 12.3614 5.47378 3.37033
upperback 0.641269 7.77607 1.68122
thorax -6.00553 3.70814 -1.43686
lowerneck -20.9018 4.9333 -3.74303
upperneck -1.52764 7.18087 -0.15976
head 3.00778 3.46501 1.24804
rclavicle 4.37326e-014 -2.06736e-014
rhumerus -27.3859 -9.49149 -60.4523
rradius 34.9662
rwrist -7.96995
rhand -11.7893 28.1246
rfingers 7.12502
rthumb 14.26 -1.36578
lclavicle 4.37326e-014 -2.06736e-014
lhumerus -24.8715 -30.6719 36.2228
lradius 80.7561
lwrist 60.2441
lhand -2.65386 46.2041
lfingers 7.12502
lthumb 23.0461 74.8461
rfemur -22.6163 -11.059 15.881
rtibia 79.1336
rfoot -7.91849 -12.2133
rtoes -5.77861
lfemur -30.7105 2.38955 -18.258
ltibia 55.2189
lfoot -23.403 -12.986
ltoes 33.3456
574
root 5.09112 16.1459 -17.1021 -993.473 -74.3494 -438.634
lowerback 12.1949 5.12108 2.67991
upperback 0.588982 7.19798 1.36122
thorax -6.033 3.44463 -1.28733
lowerneck -23.3717 4.9532 -4.80563
upperneck 1.57953 7.56171 1.39017
head 3.83928 3.69938 1.89546
rclavicle -8.22969e-014 3.81667e-014
rhumerus -27.5082 -10.571 -59.1978
rradius 34.4599
rwrist -7.7927
rhand -11.8066 27.2708
rfingers 7.12502
rthumb 14.2433 -2.22082
lclavicle -8.22969e-014 3.81667e-014
lhumerus -25.0483 -30.8678 37.0191
lradius 81.0763
lwrist 60.6527
lhand -3.46577 46.4466
lfingers 7.12502
lthumb 22.2669 75.1838
rfemur -24.393 -11.3275 13.8266
rtibia 79.9937
rfoot -8.0991 -12.031
rtoes -6.25602
lfemur -29.0587 1.05492 -19.6985
ltibia 53.0382
lfoot -22.4346 -14.117
ltoes 35.1334
575
root 4.94741 16.2492 -17.0897 -1000.98 -74.1314 -431.201
lowerback 12.1902 4.79352 2.59399
upperback 0.545677 6.7684 1.56896
thorax -6.12613 3.23769 -0.957232
lowerneck -23.3596 5.03462 -4.75928
upperneck 1.5774 7.69141 0.968746
head 3.85108 3.73477 1.76798
rclavicle -6.79844e-014 2.38542e-014
rhumerus -27.5337 -11.2943 -57.8771
rradius 34.0323
rwrist -7.93512
rhand -11.4595 26.4279
rfingers 7.12502
rthumb 14.5778 -3.03984
lclavicle -6.79844e-014 2.38542e-014
lhumerus -25.4924 -30.8141 38.1969
lradius 81.3529
lwrist 60.4603
lhand -3.8109 46.9982
lfingers 7.12502
lthumb 21.9355 75.7746
rfemur -26.0655 -11.3515 13.3158
rtibia 80.7668
rfoot -8.24585 -12.6817
rtoes -6.17689
lfemur -27.2303 0.061666 -19.7916
ltibia 50.8015
lfoot -21.5243 -15.1448
ltoes 35.5808
576
root 4.80061 16.3708 -17.0773 -1007.24 -73.1488 -425.168
lowerback 12.3195 4.4641 2.95087
upperback 0.527497 6.41055 1.99722
thorax -6.23899 3.05305 -0.660333
lowerneck -22.9072 5.19065 -4.49117
upperneck 1.11672 7.86111 0.0908913
head 3.68354 3.77086 1.44691
rclavicle 8.42847e-014 -8.74653e-015
rhumerus -27.501 -11.8069 -56.6786
rradius 33.7332
rwrist -8.31295
rhand -11.6619 25.5757
rfingers 7.12502
rthumb 14.3828 -3.90597
lclavicle 8.42847e-014 -8.74653e-015
lhumerus -25.8747 -30.6463 39.4897
lradius 81.5822
lwrist 60.25
lhand -4.53282 47.5019
lfingers 7.12502
lthumb 21.2422 76.3579
rfemur -27.5933 -11.028 13.5241
rtibia 81.4475
rfoot -9.04689 -13.5914
rtoes -2.4957
lfemur -25.224 -1.48082 -19.2663
ltibia 48.6055
lfoot -20.7922 -14.8469
ltoes 32.9297
577
root 4.64752 16.5112 -17.0444 -1014.37 -72.5787 -418.225
lowerback 12.3942 4.07271 2.91698
upperback 0.564787 5.89273 2.06795
thorax -6.2647 2.8014 -0.485371
lowerneck -22.9262 5.41684 -4.53701
upperneck 1.24899 8.19498 -0.0910854
head 3.72523 3.92204 1.42984
rclavicle 7.95139e-015 7.15625e-015
rhumerus -27.4461 -12.7409 -55.6007
rradius 33.4031
rwrist -8.6266
rhand -12.1696 24.7041
rfingers 7.12502
rthumb 13.8935 -4.81178
lclavicle 7.95139e-015 7.15625e-015
lhumerus -25.7816 -30.5417 40.4063
lradius 81.662
lwrist 60.255
lhand -5.10472 47.9561
lfingers 7.12502
lthumb 20.6928 76.873
rfemur -28.9169 -10.9735 12.8379
rtibia 81.9908
rfoot -10.0344 -14.0984
rtoes 0.860119
lfemur -23.1572 -4.09544 -19.7086
ltibia 46.437
lfoot -19.6502 -13.4646
ltoes 30.5745
578
root 4.49737 16.6256 -17.0233 -1020.91 -71.7077 -411.806
lowerback 12.2131 3.71587 2.97654
upperback 0.738751 5.41137 2.08783
thorax -5.98554 2.57133 -0.396147
lowerneck -22.9053 5.71981 -4.27623
upperneck 0.961674 8.55252 -0.616088
head 3.65746 4.07112 1.25238
rclavicle 8.74653e-015 -1.82882e-014
rhumerus -27.3102 -14.1345 -54.6138
rradius 33.1388
rwrist -9.10067
rhand -12.622 23.5669
rfingers 7.12502
rthumb 13.4576 -5.9783
lclavicle 8.74653e-015 -1.82882e-014
lhumerus -25.1607 -30.3866 41.016
lradius 81.6078
lwrist 60.5085
lhand -5.35867 48.1983
lfingers 7.12502
lthumb 20.4488 77.1415
rfemur -30.3317 -11.1327 12.3767
rtibia 82.5463
rfoot -10.3922 -14.6366
rtoes 1.94834
lfemur -21.4965 -4.02572 -20.0756
ltibia 44.4724
lfoot -17.7482 -14.9792
ltoes 31.2387
579
root 4.34399 16.7597 -17.0068 -1025.87 -70.4655 -407.02
lowerback 12.1849 3.47205 3.08861
upperback 0.812745 5.10791 2.27329
thorax -5.9057 2.42315 -0.209607
lowerneck -22.746 5.93842 -3.57862
upperneck 0.600115 8.71161 -1.66719
head 3.5979 4.09301 0.825753
rclavicle 3.22031e-014 -2.94201e-014
rhumerus -27.4382 -15.2576 -53.6095
rradius 33.0424
rwrist -9.76969
rhand -13.2281 22.123
rfingers 7.12502
rthumb 12.8734 -7.46001
lclavicle 3.22031e-014 -2.94201e-014
lhumerus -24.6043 -30.3121 41.8411
lradius 81.4422
lwrist 60.6254
lhand -5.01868 48.325
lfingers 7.12502
lthumb 20.7755 77.2328
rfemur -31.6079 -11.1374 12.4825
rtibia 82.8632
rfoot -10.8126 -15.5648
rtoes 2.41672
lfemur -19.8207 -4.5323 -20.002
ltibia 42.6115
lfoot -15.7288 -15.7979
ltoes 31.2218
